<svg width="60" height="60" viewBox="0 0 60 60" fill="none" xmlns="http://www.w3.org/2000/svg">
<g id="icons">
<circle id="Ellipse 19" cx="30" cy="30" r="30" fill="white"/>
<path id="Vector" d="M10.0918 30.4083C10.0929 35.1786 11.7927 39.7922 14.8857 43.4197C17.9787 47.0472 22.262 49.4508 26.9658 50.1984V36.1977H21.8918V30.4083H26.9718V26.0011C26.8596 24.9696 26.9756 23.926 27.3114 22.9445C27.6473 21.9629 28.1948 21.0675 28.9151 20.3217C29.6354 19.576 30.5107 18.9983 31.479 18.6296C32.4473 18.2609 33.4848 18.1103 34.5178 18.1884C36.0178 18.2125 37.5178 18.3467 38.9978 18.5891V23.5151H36.4698C36.0401 23.4587 35.6033 23.4998 35.1916 23.6352C34.78 23.7707 34.4039 23.9971 34.0913 24.2977C33.7788 24.5983 33.5376 24.9654 33.3857 25.3719C33.2338 25.7784 33.1751 26.2139 33.2138 26.6462V30.4083H38.7558L37.8698 36.1997H33.2138V50.1984C36.989 49.6008 40.5143 47.9322 43.3721 45.3901C46.23 42.8481 48.3008 39.539 49.3393 35.8547C50.3779 32.1705 50.3407 28.2653 49.2322 24.6015C48.1237 20.9377 45.9903 17.6688 43.0845 15.1818C40.1788 12.6948 36.6225 11.0938 32.8365 10.5685C29.0506 10.0431 25.1936 10.6153 21.7223 12.2173C18.251 13.8194 15.3106 16.3842 13.2494 19.6081C11.1882 22.832 10.0924 26.5799 10.0918 30.4083Z" fill="#362B57"/>
</g>
</svg>
