<svg width="65" height="60" viewBox="0 0 65 60" fill="none" xmlns="http://www.w3.org/2000/svg">
<ellipse cx="32.3423" cy="30" rx="32.0053" ry="30" fill="white"/>
<path d="M32.277 34.4617C29.9199 34.4617 28.0096 35.9402 28.0096 37.7638C28.0096 39.5874 29.9206 41.0659 32.277 41.0659C34.6334 41.0659 36.5445 39.5874 36.5445 37.7638C36.5445 35.9402 34.6908 34.4617 32.277 34.4617ZM32.337 26.2076C27.6528 26.2076 23.142 27.5283 19.6347 29.9235C18.7545 30.5719 18.6678 31.614 19.448 32.3001C20.2348 32.9811 21.5817 33.0482 22.4619 32.4446C25.189 30.5823 28.6964 29.5557 32.337 29.5557C35.9777 29.5557 39.4917 30.5812 42.2122 32.4446C42.6189 32.7232 43.1257 32.8573 43.6258 32.8573C43.9284 32.8575 44.2276 32.8078 44.5035 32.7117C44.7794 32.6155 45.0257 32.4751 45.2261 32.2996C46.0062 31.614 45.9262 30.5719 45.0394 29.9684C41.5321 27.5747 37.0246 26.2076 32.337 26.2076ZM53.0208 24.433C47.4265 20.2843 40.0851 18 32.337 18C24.5889 18 17.2469 20.2843 11.6561 24.433C10.806 25.0649 10.7786 26.1096 11.5936 26.7673C12.4084 27.4266 13.7587 27.4442 14.6108 26.8157C19.3413 23.2155 25.6958 21.3016 32.337 21.3016C38.9783 21.3016 45.2127 23.2604 50.0603 26.8164C50.4804 27.1207 51.0071 27.2755 51.5406 27.2755C52.1011 27.2755 52.6614 27.1062 53.0802 26.7677C53.8943 26.1096 53.8677 25.0211 53.0208 24.433Z" fill="#362B57"/>
</svg>
