<svg width="60" height="60" viewBox="0 0 60 60" fill="none" xmlns="http://www.w3.org/2000/svg">
<path d="M60 30C60 46.5686 46.5685 60 30 60C13.4315 60 0 46.5686 0 30C0 13.4315 13.4315 3.05176e-05 30 3.05176e-05C46.5685 3.05176e-05 60 13.4315 60 30Z" fill="white"/>
<path d="M26.25 27.0594C26.25 26.2049 25.4104 25.5118 24.375 25.5118H23.4375C21.3662 25.5118 19.6875 26.8974 19.6875 28.607V30.9285C19.6875 32.6381 21.3662 34.0237 23.4375 34.0237H24.375C25.4104 34.0237 26.25 33.3306 26.25 32.4761V27.0594ZM36.5625 34.0237C38.6338 34.0237 40.3125 32.6381 40.3125 30.9285V28.607C40.3125 26.8974 38.6338 25.5118 36.5625 25.5118H35.625C34.5896 25.5118 33.75 26.2049 33.75 27.0594V32.4761C33.75 33.3306 34.5896 34.0237 35.625 34.0237H36.5625ZM30 17C21.6316 17 15.2684 22.7469 15 29.3809V30.1547C15 30.5822 15.4195 30.9285 15.9375 30.9285H16.875C17.393 30.9285 17.8125 30.5822 17.8125 30.1547V29.3809C17.8125 23.8341 23.2799 19.3214 30 19.3214C36.7201 19.3214 42.1875 23.8341 42.1875 29.3809H42.1805C42.1852 29.4984 42.1875 37.3955 42.1875 37.3955C42.1875 38.5248 41.0783 39.4403 39.7102 39.4403H33.75C33.75 38.1582 32.4908 37.1189 30.9375 37.1189H29.0625C27.5092 37.1189 26.25 38.1582 26.25 39.4403C26.25 40.7224 27.5092 41.7617 29.0625 41.7617H39.7102C42.6316 41.7617 45 39.8069 45 37.3955V29.3809C44.7316 22.7469 38.3684 17 30 17Z" fill="#362B57"/>
</svg>
