<svg width="60" height="60" viewBox="0 0 60 60" fill="none" xmlns="http://www.w3.org/2000/svg">
<g id="icons">
<circle id="Ellipse 19" cx="30" cy="30" r="30" fill="white"/>
<g id="instagram">
<path id="Vector" d="M50.1087 22.2972C50.0863 20.6122 49.7714 18.9439 49.178 17.367C48.6635 16.0369 47.8776 14.8289 46.8705 13.8202C45.8635 12.8115 44.6575 12.0243 43.3295 11.509C41.7754 10.9246 40.1335 10.6086 38.4739 10.5745C36.3371 10.4788 35.6596 10.4521 30.2353 10.4521C24.8111 10.4521 24.1158 10.4521 21.9945 10.5745C20.3356 10.6089 18.6946 10.9249 17.1411 11.509C15.813 12.024 14.6068 12.811 13.5997 13.8197C12.5926 14.8285 11.8068 16.0366 11.2926 17.367C10.7081 18.9224 10.3933 20.5665 10.3619 22.2283C10.2664 24.3708 10.2375 25.0494 10.2375 30.4824C10.2375 35.9155 10.2375 36.6097 10.3619 38.7366C10.3953 40.4008 10.7085 42.0427 11.2926 43.6024C11.8077 44.9323 12.594 46.14 13.6015 47.1483C14.6089 48.1566 15.8152 48.9433 17.1434 49.4582C18.6925 50.066 20.3339 50.4046 21.9968 50.4593C24.1358 50.555 24.8133 50.5839 30.2376 50.5839C35.6618 50.5839 36.3571 50.5839 38.4783 50.4593C40.1379 50.4266 41.7799 50.1114 43.334 49.5271C44.6616 49.0111 45.8673 48.2238 46.8742 47.2152C47.8812 46.2066 48.6673 44.9989 49.1825 43.6691C49.7667 42.1117 50.0798 40.4698 50.1132 38.8034C50.2087 36.6631 50.2375 35.9845 50.2375 30.5492C50.2331 25.1161 50.2331 24.4264 50.1087 22.2972ZM30.222 40.7568C24.549 40.7568 19.9532 36.1536 19.9532 30.4713C19.9532 24.7891 24.549 20.1859 30.222 20.1859C32.9454 20.1859 35.5574 21.2695 37.4831 23.1984C39.4089 25.1273 40.4908 27.7434 40.4908 30.4713C40.4908 33.1992 39.4089 35.8153 37.4831 37.7442C35.5574 39.6731 32.9454 40.7568 30.222 40.7568ZM40.8995 22.2038C40.5849 22.2041 40.2734 22.1422 39.9828 22.0218C39.6922 21.9014 39.4281 21.7247 39.2057 21.502C38.9833 21.2792 38.8069 21.0147 38.6867 20.7236C38.5664 20.4325 38.5047 20.1204 38.505 19.8054C38.505 19.4906 38.5669 19.1789 38.6872 18.888C38.8074 18.5972 38.9837 18.3329 39.206 18.1103C39.4282 17.8877 39.6921 17.7111 39.9825 17.5906C40.2728 17.4701 40.5841 17.4081 40.8984 17.4081C41.2127 17.4081 41.5239 17.4701 41.8143 17.5906C42.1047 17.7111 42.3685 17.8877 42.5907 18.1103C42.813 18.3329 42.9893 18.5972 43.1096 18.888C43.2298 19.1789 43.2917 19.4906 43.2917 19.8054C43.2917 21.1314 42.2211 22.2038 40.8995 22.2038Z" fill="#362B57"/>
<path id="Vector_2" d="M30.2219 37.1525C33.9058 37.1525 36.8923 34.1612 36.8923 30.4713C36.8923 26.7813 33.9058 23.79 30.2219 23.79C26.5379 23.79 23.5515 26.7813 23.5515 30.4713C23.5515 34.1612 26.5379 37.1525 30.2219 37.1525Z" fill="#362B57"/>
</g>
</g>
</svg>
