<svg width="60" height="60" viewBox="0 0 60 60" fill="none" xmlns="http://www.w3.org/2000/svg">
<g id="icons">
<circle id="Ellipse 19" cx="30" cy="30" r="30" fill="white"/>
<path id="Vector" d="M42.7779 15.54H17.2146C15.9921 15.54 15 16.5104 15 17.7052V43.4207C15 44.6172 15.9921 45.5888 17.2146 45.5888H42.7779C44.0013 45.5888 45 44.6172 45 43.4207V17.7052C45 16.5104 44.0013 15.54 42.7779 15.54ZM23.8975 41.1458H19.4458V26.8062H23.8975V41.1458ZM21.6717 24.8456C21.3328 24.8456 20.9973 24.7787 20.6843 24.6488C20.3713 24.5188 20.0869 24.3284 19.8473 24.0883C19.6078 23.8483 19.4179 23.5633 19.2883 23.2497C19.1588 22.936 19.0923 22.5999 19.0925 22.2605C19.0925 21.5754 19.3642 20.9184 19.8479 20.434C20.3315 19.9495 20.9875 19.6774 21.6715 19.6774C22.3554 19.6774 23.0114 19.9495 23.4951 20.434C23.9787 20.9184 24.2504 21.5754 24.2504 22.2605C24.2504 22.9458 23.9788 23.603 23.4952 24.0877C23.0117 24.5724 22.3558 24.845 21.6717 24.8456ZM40.5625 41.1458H36.1179V34.1728C36.1179 32.5093 36.0854 30.3704 33.805 30.3704C31.4892 30.3704 31.1363 32.1821 31.1363 34.0522V41.1462H26.6883V26.8062H30.9571V28.7644H31.0179C31.6121 27.6376 33.0638 26.4486 35.2288 26.4486C39.7313 26.4486 40.5629 29.4176 40.5629 33.2801L40.5625 41.1458Z" fill="#362B57"/>
</g>
</svg>
