<svg width="60" height="60" viewBox="0 0 60 60" fill="none" xmlns="http://www.w3.org/2000/svg">
<g id="icons">
<circle id="Ellipse 19" cx="30" cy="30" r="30" fill="white"/>
<path id="Vector" d="M50.05 18.5924C48.9539 20.2282 47.5668 21.6847 45.9561 22.8499C45.9785 23.186 45.9785 23.5445 45.9785 23.903C45.9785 34.7708 37.7234 47.2967 22.6451 47.2967C18.0143 47.2967 13.6966 45.9299 10.05 43.5994C10.6988 43.6667 11.3476 43.7115 12.0187 43.7115C15.8666 43.7115 19.4013 42.3894 22.1977 40.1935C20.4871 40.158 18.8302 39.5883 17.4585 38.5639C16.0868 37.5395 15.0688 36.1115 14.5467 34.4795C15.0389 34.5691 15.5534 34.6364 16.0903 34.6364C16.8286 34.6364 17.5668 34.5243 18.238 34.3451C16.3825 33.9635 14.7151 32.9528 13.517 31.4834C12.3189 30.0139 11.6633 28.1755 11.6608 26.2783V26.1886C12.7794 26.7936 14.0322 27.1746 15.3744 27.2194C14.2509 26.4646 13.3305 25.444 12.6945 24.2481C12.0585 23.0522 11.7265 21.7177 11.7279 20.3626C11.7279 18.8613 12.1306 17.4496 12.8465 16.2396C16.8957 21.2141 22.936 24.4856 29.7592 24.8218C29.625 24.2168 29.5355 23.5893 29.5355 22.9395C29.5414 20.7624 30.4091 18.6764 31.9481 17.139C33.4872 15.6016 35.5722 14.7383 37.7458 14.7383C40.1172 14.7383 42.2424 15.7242 43.7413 17.3376C45.5981 16.9566 47.3655 16.2844 48.9539 15.3433C48.3275 17.2479 47.0299 18.8613 45.3297 19.8697C46.9597 19.6912 48.5521 19.2603 50.05 18.5924Z" fill="#362B57"/>
</g>
</svg>
