<svg width="60" height="60" viewBox="0 0 60 60" fill="none" xmlns="http://www.w3.org/2000/svg">
<g id="icons">
<circle id="Ellipse 19" cx="30" cy="30" r="30" fill="white"/>
<path id="Vector" d="M49.1863 20.9511C48.9586 20.1051 48.5138 19.3336 47.8959 18.7134C47.2781 18.0931 46.5089 17.6458 45.6648 17.4158C42.535 16.555 30.0138 16.541 30.0138 16.541C30.0138 16.541 17.4947 16.527 14.3629 17.3498C13.5194 17.5903 12.7517 18.044 12.1336 18.6672C11.5156 19.2905 11.0678 20.0625 10.8334 20.909C10.008 24.0439 10 30.5459 10 30.5459C10 30.5459 9.99201 37.0799 10.8114 40.1827C11.2711 41.8983 12.6202 43.2535 14.3349 43.716C17.4967 44.5767 29.9839 44.5908 29.9839 44.5908C29.9839 44.5908 42.505 44.6048 45.6348 43.784C46.4792 43.5545 47.2491 43.1082 47.8685 42.4892C48.4879 41.8702 48.9352 41.1 49.1663 40.2548C49.9937 37.1219 49.9997 30.6219 49.9997 30.6219C49.9997 30.6219 50.0397 24.086 49.1863 20.9511ZM26.0087 36.5694L26.0187 24.5584L36.4253 30.5739L26.0087 36.5694Z" fill="#362B57"/>
</g>
</svg>
